<svg width="150" height="18" viewBox="0 0 150 18" fill="none" xmlns="http://www.w3.org/2000/svg">
<path d="M113.112 16C112.165 16 111.309 15.8378 110.544 15.5135C109.791 15.1892 109.194 14.7222 108.753 14.1125C108.312 13.5027 108.085 12.7828 108.072 11.9525H110.991C111.03 12.5103 111.225 12.9514 111.575 13.2757C111.938 13.6 112.431 13.7622 113.054 13.7622C113.689 13.7622 114.189 13.613 114.552 13.3146C114.915 13.0033 115.097 12.6012 115.097 12.1082C115.097 11.706 114.974 11.3752 114.727 11.1158C114.481 10.8563 114.169 10.6553 113.793 10.5126C113.43 10.3569 112.924 10.1883 112.275 10.0066C111.393 9.7472 110.673 9.49423 110.115 9.24775C109.571 8.9883 109.097 8.60561 108.695 8.09968C108.306 7.58078 108.111 6.89324 108.111 6.03705C108.111 5.23275 108.312 4.53224 108.714 3.9355C109.117 3.33876 109.681 2.88472 110.407 2.57338C111.134 2.24907 111.964 2.08691 112.898 2.08691C114.299 2.08691 115.434 2.43069 116.303 3.11823C117.185 3.7928 117.672 4.7398 117.763 5.95922H114.766C114.74 5.4922 114.539 5.10951 114.163 4.81115C113.8 4.4998 113.313 4.34413 112.703 4.34413C112.172 4.34413 111.743 4.48035 111.419 4.75277C111.108 5.02519 110.952 5.42086 110.952 5.93976C110.952 6.30299 111.069 6.60784 111.302 6.85432C111.549 7.08783 111.847 7.28241 112.198 7.43808C112.561 7.58078 113.067 7.74942 113.715 7.94401C114.597 8.20346 115.317 8.46291 115.875 8.72237C116.433 8.98182 116.913 9.37099 117.315 9.88989C117.717 10.4088 117.918 11.0899 117.918 11.9331C117.918 12.6595 117.73 13.3341 117.354 13.9568C116.978 14.5795 116.427 15.0789 115.7 15.4551C114.974 15.8183 114.111 16 113.112 16Z" fill="#323232"/>
<path d="M97.5397 2.28149V10.6877C97.5397 11.6087 97.7797 12.3158 98.2596 12.8087C98.7396 13.2887 99.4142 13.5287 100.283 13.5287C101.165 13.5287 101.847 13.2887 102.327 12.8087C102.807 12.3158 103.046 11.6087 103.046 10.6877V2.28149H105.79V10.6682C105.79 11.8228 105.537 12.8022 105.031 13.6065C104.538 14.3978 103.87 14.9946 103.027 15.3967C102.197 15.7989 101.269 15.9999 100.244 15.9999C99.2326 15.9999 98.3115 15.7989 97.4813 15.3967C96.664 14.9946 96.0154 14.3978 95.5354 13.6065C95.0554 12.8022 94.8154 11.8228 94.8154 10.6682V2.28149H97.5397Z" fill="#323232"/>
<path d="M85.8813 16C84.61 16 83.4424 15.7016 82.3787 15.1049C81.315 14.5081 80.4717 13.6844 79.8491 12.6336C79.2264 11.5698 78.915 10.3699 78.915 9.03371C78.915 7.71051 79.2264 6.52352 79.8491 5.47275C80.4717 4.409 81.315 3.57875 82.3787 2.98202C83.4424 2.38528 84.61 2.08691 85.8813 2.08691C87.1656 2.08691 88.3331 2.38528 89.3839 2.98202C90.4476 3.57875 91.2843 4.409 91.894 5.47275C92.5167 6.52352 92.8281 7.71051 92.8281 9.03371C92.8281 10.3699 92.5167 11.5698 91.894 12.6336C91.2843 13.6844 90.4476 14.5081 89.3839 15.1049C88.3201 15.7016 87.1526 16 85.8813 16ZM85.8813 13.5676C86.6985 13.5676 87.4185 13.386 88.0412 13.0228C88.6639 12.6466 89.1504 12.1147 89.5006 11.4271C89.8509 10.7396 90.026 9.94178 90.026 9.03371C90.026 8.12563 89.8509 7.3343 89.5006 6.65973C89.1504 5.97219 88.6639 5.4468 88.0412 5.08357C87.4185 4.72034 86.6985 4.53872 85.8813 4.53872C85.064 4.53872 84.3376 4.72034 83.7019 5.08357C83.0792 5.4468 82.5927 5.97219 82.2425 6.65973C81.8922 7.3343 81.7171 8.12563 81.7171 9.03371C81.7171 9.94178 81.8922 10.7396 82.2425 11.4271C82.5927 12.1147 83.0792 12.6466 83.7019 13.0228C84.3376 13.386 85.064 13.5676 85.8813 13.5676Z" fill="#323232"/>
<path d="M76.8844 2.28149V15.8637H74.1602V2.28149H76.8844Z" fill="#323232"/>
<path d="M58.5625 9.05324C58.5625 7.71707 58.8609 6.52359 59.4576 5.47282C60.0673 4.40907 60.8911 3.58531 61.9289 3.00155C62.9796 2.40481 64.1537 2.10645 65.4509 2.10645C66.9687 2.10645 68.2984 2.49562 69.44 3.27397C70.5815 4.05233 71.3793 5.12905 71.8334 6.50413H68.7005C68.3892 5.85551 67.9481 5.36904 67.3773 5.04472C66.8195 4.72041 66.1709 4.55825 65.4314 4.55825C64.6401 4.55825 63.9331 4.74636 63.3104 5.12256C62.7007 5.48579 62.2207 6.00469 61.8705 6.67926C61.5332 7.35384 61.3646 8.14516 61.3646 9.05324C61.3646 9.94834 61.5332 10.7397 61.8705 11.4272C62.2207 12.1018 62.7007 12.6272 63.3104 13.0034C63.9331 13.3666 64.6401 13.5482 65.4314 13.5482C66.1709 13.5482 66.8195 13.3861 67.3773 13.0618C67.9481 12.7245 68.3892 12.2315 68.7005 11.5829H71.8334C71.3793 12.9709 70.5815 14.0542 69.44 14.8325C68.3113 15.5979 66.9817 15.9806 65.4509 15.9806C64.1537 15.9806 62.9796 15.6887 61.9289 15.1049C60.8911 14.5082 60.0673 13.6844 59.4576 12.6337C58.8609 11.5829 58.5625 10.3894 58.5625 9.05324Z" fill="#323232"/>
<path d="M56.5328 2.28149V15.8637H53.8086V2.28149H56.5328Z" fill="#323232"/>
<path d="M40.0577 5.04313L38.7012 2.33008H41.3705L42.727 5.04313H40.0577Z" fill="#323232"/>
<path d="M45.4403 15.708L41.3707 7.61262H44.0838L45.4403 10.3257L46.7968 7.61262H49.4661L45.4403 15.708Z" fill="#323232"/>
<path d="M48.152 5.04313L49.4648 2.33008H52.1779L50.8213 5.04313H48.152Z" fill="#323232"/>
<path d="M37.2829 15.8639H34.5587L28.3902 6.54314V15.8639H25.666V2.26221H28.3902L34.5587 11.6024V2.26221H37.2829V15.8639Z" fill="#323232"/>
<path d="M22.9742 2.28149V15.8637H20.25V2.28149H22.9742Z" fill="#323232"/>
<path d="M123.178 2.13217V2.64974H122.148V6H121.514V2.64974H120.479V2.13217H123.178ZM127.894 2.13217V6H127.26V3.35096L126.08 6H125.64L124.455 3.35096V6H123.82V2.13217H124.505L125.863 5.16522L127.215 2.13217H127.894Z" fill="#323232"/>
</svg>
